# xmcd
#
# Track frame offsets: 
#        150
#        17284
#        34518
#        51109
#        71449
#        85381
#        108393
#        121990
#        149410
#        164948
#        184113
#        208469
#        242831
#
# Disc length: 3252 seconds
#
# Revision: 0
# Processed by: cddbd v1.5.2PL0 Copyright (c) Steve Scherf et al.
# Submitted via: ExactAudioCopy v0.99pb5
#
DISCID=bb0cb20d
DTITLE=Various Artist - Rough Guide To Blues And Beyond [CD1]
DYEAR=2009
DGENRE=Blues
TTITLE0=Chris Thomas King - Mississippi Kkkrossroads
TTITLE1=Tinariwen - Qualahila Ar Tesninam
TTITLE2=Johnny Farmer - Death Letter (Organized Noize Rmx)
TTITLE3=Mamane Barka - Malloumi
TTITLE4=Outrageous Cherry - Lord have Mercy On Me
TTITLE5=Etran Finatawa - Kel Tamasheck
TTITLE6=North Mississippi All Stars - Shake (Yo Mama)
TTITLE7=Robert Plant and Justin Adams - Win My Train Fare Home (If Ever 
TTITLE7=I Get Lucky)
TTITLE8=Corey Harris - Mami Wata
TTITLE9=Son Of Dave - I Just Wanna Get High With You
TTITLE10=Tangle Eye - Parchman Blues
TTITLE11=Nuru Kane - Goree
TTITLE12=Data
EXTD=
EXTT0=
EXTT1=
EXTT2=
EXTT3=
EXTT4=
EXTT5=
EXTT6=
EXTT7=
EXTT8=
EXTT9=
EXTT10=
EXTT11=
EXTT12=
PLAYORDER=
